<svg xmlns="http://www.w3.org/2000/svg" viewBox="0 0 574 375">
  <defs>
    <style>.cls-1{fill:#999;}.cls-2{fill:#d9e021;}</style>
  </defs>
  <title>Azzcat Design Logotype</title>
  <g id="Layer_2" data-name="Layer 2">
    <g id="Layer_1-2" data-name="Layer 1">
      <g id="Layer_2-2" data-name="Layer 2">
        <g id="logo">
          <g id="logotype">
            <path class="cls-1" d="M392.5,0H321.24V74h-60L235,0H133L0,375H107l23.44-74H256.58L241.5,250.16l-5-17.5L195.86,92h-18L223,250.16,232.33,283H117.39L94,357H25L145.5,18h77l26.17,73.77.11.23h72.46V301H382.5c54,0,102.5-55,102.5-113.5S436.5,74,382.5,74H339.24V18H392.5C489.5,18,556,90.58,556,187.58S489.5,357.12,392.5,357.12l-118.86.16L278.5,375h114C501,375,574,294,574,187.5S501,0,392.5,0Zm-10,92C430,92,467,140.5,467,187.5S430,283,382.5,283H339.24V92Z"/>
            <path id="fill" class="cls-2" d="M382.5,92C430,92,467,140.5,467,187.5S430,283,382.5,283H339.24V92Z"/>
          </g>
        </g>
      </g>
    </g>
  </g>
</svg>